<svg width="1180" height="180" viewBox="0 0 1180 180" fill="none" xmlns="http://www.w3.org/2000/svg">
<path d="M192.715 180H158.788V58.5031H157.779L108.339 178.254H84.3758L34.9359 58.5031H33.9269V180H0V0H44.1428L95.8529 127.609H96.8619L148.572 0H192.715V180Z" fill="white"/>
<path d="M342.17 180L328.296 136.341H264.352L250.479 180H211.381L274.568 0H319.342L382.655 180H342.17ZM295.883 34.4283L272.55 108.15H320.098L296.766 34.4283H295.883Z" fill="white"/>
<path d="M477.121 180H431.212L370.043 0H412.672L454.292 141.206H455.175L496.796 0H538.29L477.121 180Z" fill="white"/>
<path d="M677.529 148.815V180H556.956V0H677.529V31.0603H595.045V74.4699H672.862V103.41H595.045V148.815H677.529Z" fill="white"/>
<path d="M741.473 180H705.024V0H736.806L821.813 117.256H822.822V0H859.271V180H827.741L742.608 62.1206H741.473V180Z" fill="white"/>
<path d="M971.268 180H933.179V31.0603H880.586V0H1023.99V31.0603H971.268V180Z" fill="white"/>
<path d="M1139.51 180L1125.64 136.341H1061.7L1047.82 180H1008.73L1071.91 0H1116.69L1180 180H1139.51ZM1093.23 34.4283L1069.9 108.15H1117.44L1094.11 34.4283H1093.23Z" fill="white"/>
</svg>
