<svg width="54" height="60" viewBox="0 0 54 60" fill="none" xmlns="http://www.w3.org/2000/svg">
<path d="M42.8191 29.4673H47.0043C47.9505 29.4673 48.7203 28.6975 48.7203 27.7513V23.5661C48.7203 22.6199 47.9505 21.8501 47.0043 21.8501H42.8191C41.8729 21.8501 41.1031 22.6199 41.1031 23.5661V27.7513C41.1031 28.6975 41.8729 29.4673 42.8191 29.4673ZM42.8609 23.6079H46.9625V27.7095H42.8609V23.6079ZM42.8191 40.6001H47.0043C47.9505 40.6001 48.7203 39.8303 48.7203 38.8841V34.6989C48.7203 33.7527 47.9505 32.9829 47.0043 32.9829H42.8191C41.8729 32.9829 41.1031 33.7527 41.1031 34.6989V38.8841C41.1031 39.8303 41.8729 40.6001 42.8191 40.6001ZM42.8609 34.7407H46.9625V38.8423H42.8609V34.7407ZM30.8758 29.4673H35.0611C36.0072 29.4673 36.777 28.6975 36.777 27.7513V23.5661C36.777 22.6199 36.0072 21.8501 35.0611 21.8501H30.8758C29.9297 21.8501 29.1599 22.6199 29.1599 23.5661V27.7513C29.1599 28.6975 29.9297 29.4673 30.8758 29.4673ZM30.9177 23.6079H35.0192V27.7095H30.9177V23.6079ZM11.1745 43.5938H6.9893C6.04313 43.5938 5.27332 44.3636 5.27332 45.3097V49.495C5.27332 50.4411 6.04313 51.2109 6.9893 51.2109H11.1745C12.1207 51.2109 12.8905 50.4411 12.8905 49.495V45.3097C12.8905 44.3636 12.1207 43.5938 11.1745 43.5938ZM11.1327 49.4531H7.03114V45.3516H11.1327V49.4531ZM11.1745 21.8501H6.9893C6.04313 21.8501 5.27332 22.6199 5.27332 23.5661V27.7513C5.27332 28.6975 6.04313 29.4673 6.9893 29.4673H11.1745C12.1207 29.4673 12.8905 28.6975 12.8905 27.7513V23.5661C12.8905 22.6198 12.1207 21.8501 11.1745 21.8501ZM11.1327 27.7095H7.03114V23.6079H11.1327V27.7095ZM30.8758 40.3391H35.0611C36.0072 40.3391 36.777 39.5693 36.777 38.6231V34.4379C36.777 33.4917 36.0072 32.7219 35.0611 32.7219H30.8758C29.9297 32.7219 29.1599 33.4917 29.1599 34.4379V38.6231C29.1599 39.5693 29.9297 40.3391 30.8758 40.3391ZM30.9177 34.4797H35.0192V38.5813H30.9177V34.4797ZM49.5933 4.01648H45.8355V2.6727C45.8355 1.19895 44.6366 0 43.1628 0H42.7592C41.2856 0 40.0867 1.19895 40.0867 2.6727V4.01648H13.907V2.6727C13.907 1.19895 12.708 0 11.2343 0H10.8307C9.35696 0 8.15801 1.19895 8.15801 2.6727V4.01648H4.40039C1.97403 4.01648 0 5.99051 0 8.41687V55.6055C0 58.0287 1.97133 60 4.39454 60H49.5993C52.0225 60 53.9939 58.0287 53.9939 55.6055V8.41687C53.9938 5.99051 52.0197 4.01648 49.5933 4.01648ZM41.8445 2.6727C41.8445 2.1682 42.2549 1.75781 42.7593 1.75781H43.1629C43.6674 1.75781 44.0778 2.1682 44.0778 2.6727V4.01648H41.8445V2.6727ZM9.91594 2.6727C9.91594 2.1682 10.3263 1.75781 10.8308 1.75781H11.2344C11.7389 1.75781 12.1493 2.1682 12.1493 2.6727V4.01648H9.91606L9.91594 2.6727ZM52.2359 55.6055C52.2359 57.0594 51.0532 58.2422 49.5992 58.2422H4.39442C2.94047 58.2422 1.7577 57.0594 1.7577 55.6055V55.6C2.49411 56.1548 3.40946 56.4844 4.40039 56.4844H40.0351C41.2105 56.4844 42.3156 56.0266 43.1467 55.1954L52.2359 46.1061V55.6055ZM42.2498 53.6064C42.3187 53.322 42.3562 53.0253 42.3562 52.7201V46.8532C42.3562 45.747 43.2563 44.8468 44.3627 44.8468H50.2295C50.5347 44.8468 50.8313 44.8093 51.1158 44.7404L42.2498 53.6064ZM52.2359 16.5766H14.7859C14.3005 16.5766 13.907 16.9702 13.907 17.4555C13.907 17.9409 14.3005 18.3345 14.7859 18.3345H52.2359V41.0827C52.2359 42.189 51.3358 43.0891 50.2295 43.0891H44.3627C42.2871 43.0891 40.5984 44.7778 40.5984 46.8533V52.7202C40.5984 53.8266 39.6983 54.7267 38.592 54.7267H4.40039C2.94328 54.7267 1.75782 53.5412 1.75782 52.084V18.3345H11.2702C11.7556 18.3345 12.1492 17.9409 12.1492 17.4555C12.1492 16.9702 11.7556 16.5766 11.2702 16.5766H1.7577V8.41687C1.7577 6.95977 2.94317 5.7743 4.40028 5.7743H8.15801V8.35851C8.15801 9.83226 9.35696 11.0312 10.8307 11.0312C11.3161 11.0312 11.7096 10.6377 11.7096 10.1523C11.7096 9.66691 11.3161 9.2734 10.8307 9.2734C10.3262 9.2734 9.91582 8.86301 9.91582 8.35851V5.7743H40.0867V8.35851C40.0867 9.83226 41.2856 11.0312 42.7593 11.0312C43.2447 11.0312 43.6383 10.6377 43.6383 10.1523C43.6383 9.66691 43.2447 9.2734 42.7593 9.2734C42.2549 9.2734 41.8445 8.86301 41.8445 8.35851V5.7743H49.5934C51.0505 5.7743 52.2359 6.95977 52.2359 8.41687V16.5766ZM11.1745 32.7219H6.9893C6.04313 32.7219 5.27332 33.4917 5.27332 34.4379V38.6231C5.27332 39.5693 6.04313 40.3391 6.9893 40.3391H11.1745C12.1207 40.3391 12.8905 39.5693 12.8905 38.6231V34.4379C12.8905 33.4916 12.1207 32.7219 11.1745 32.7219ZM11.1327 38.5813H7.03114V34.4797H11.1327V38.5813ZM18.9326 29.4673H23.1178C24.064 29.4673 24.8338 28.6975 24.8338 27.7513V23.5661C24.8338 22.6199 24.064 21.8501 23.1178 21.8501H18.9326C17.9864 21.8501 17.2166 22.6199 17.2166 23.5661V27.7513C17.2166 28.6975 17.9864 29.4673 18.9326 29.4673ZM18.9744 23.6079H23.076V27.7095H18.9744V23.6079ZM30.9166 49.4531C30.8948 48.9871 30.5101 48.6161 30.0386 48.6161C29.5533 48.6161 29.1597 49.0096 29.1597 49.495C29.1597 50.4411 29.9295 51.2109 30.8757 51.2109H35.0609C36.0071 51.2109 36.7769 50.4411 36.7769 49.495V45.3097C36.7769 44.3636 36.0071 43.5938 35.0609 43.5938H30.8757C29.9295 43.5938 29.1597 44.3636 29.1597 45.3097V46.5168C29.1597 47.0021 29.5533 47.3957 30.0386 47.3957C30.524 47.3957 30.9175 47.0021 30.9175 46.5168V45.3516H35.0191V49.4531H30.9166ZM18.9326 40.3391H23.1178C24.064 40.3391 24.8338 39.5693 24.8338 38.6231V34.4379C24.8338 33.4917 24.064 32.7219 23.1178 32.7219H18.9326C17.9864 32.7219 17.2166 33.4917 17.2166 34.4379V38.6231C17.2166 39.5693 17.9864 40.3391 18.9326 40.3391ZM18.9744 34.4797H23.076V38.5813H18.9744V34.4797ZM18.9326 51.2109H23.1178C24.064 51.2109 24.8338 50.4411 24.8338 49.495V45.3097C24.8338 44.3636 24.064 43.5938 23.1178 43.5938H18.9326C17.9864 43.5938 17.2166 44.3636 17.2166 45.3097V49.495C17.2166 50.4411 17.9864 51.2109 18.9326 51.2109ZM18.9744 45.3516H23.076V49.4531H18.9744V45.3516Z" fill="#3D3A80"/>
</svg>
