<svg width="200" height="30" viewBox="0 0 200 30" fill="none" xmlns="http://www.w3.org/2000/svg">
<path d="M21.9853 27.3255C25.7673 27.2462 28.8083 24.06 28.8083 20.1431C28.8083 18.2381 28.0741 16.4112 26.7671 15.0642L15.1623 3.10352V10.5379C15.1623 11.7813 15.6415 12.9737 16.4946 13.8529L19.2131 16.6548L19.2205 16.6623L23.7788 21.3603C23.9267 21.5129 23.9267 21.7602 23.7788 21.9127C23.6308 22.0653 23.3907 22.0653 23.2427 21.9127L21.6715 20.2933H7.13681L5.56562 21.9127C5.41759 22.0653 5.17758 22.0653 5.02955 21.9127C4.88151 21.7602 4.88151 21.5129 5.02954 21.3603L9.58781 16.6623L9.59521 16.6548L12.3137 13.8529C13.1668 12.9737 13.646 11.7813 13.646 10.5379V3.10352L2.04113 15.0642C0.734211 16.4112 0 18.2381 0 20.1431C0 24.06 3.04105 27.2462 6.82304 27.3255H21.9853Z" fill="#3D3A80"/>
<path d="M44.9584 24.0414C43.6818 24.0414 42.5046 23.8179 41.4268 23.371C40.3657 22.9076 39.4372 22.2621 38.6413 21.4345C37.8455 20.6069 37.232 19.6303 36.8009 18.5048C36.3698 17.3793 36.1543 16.1462 36.1543 14.8055C36.1543 13.4648 36.3698 12.24 36.8009 11.131C37.232 10.0221 37.8372 9.06207 38.6165 8.25103C39.4123 7.42345 40.3408 6.78621 41.402 6.33931C42.4797 5.89241 43.6652 5.66897 44.9584 5.66897C46.3843 5.66897 47.6693 5.95034 48.8134 6.5131C49.9574 7.07586 50.8942 7.87034 51.6237 8.89655C52.3698 9.90621 52.8258 11.0979 52.9916 12.4717H49.8082C49.6092 11.131 49.0704 10.1048 48.1916 9.3931C47.3128 8.66483 46.2434 8.30069 44.9833 8.30069C43.8724 8.30069 42.9025 8.56552 42.0735 9.09517C41.2445 9.62483 40.5978 10.3779 40.1336 11.3545C39.6693 12.3145 39.4372 13.4566 39.4372 14.7807C39.4372 16.1379 39.6693 17.3131 40.1336 18.3062C40.5978 19.2828 41.2527 20.0441 42.0983 20.5903C42.9439 21.1365 43.9139 21.4097 45.0082 21.4097C46.2351 21.4097 47.288 21.0538 48.1667 20.3421C49.0455 19.6138 49.6009 18.5876 49.8331 17.2634H53.0413C52.8424 18.6207 52.3698 19.8124 51.6237 20.8386C50.8942 21.8648 49.9574 22.6593 48.8134 23.2221C47.6693 23.7683 46.3843 24.0414 44.9584 24.0414ZM54.983 23.7931V11.131H58.0421V14.1848H58.1167V23.7931H54.983ZM58.1167 17.189L57.7934 14.1848C58.0918 13.109 58.5975 12.2897 59.3105 11.7269C60.0234 11.1641 60.8773 10.8828 61.8721 10.8828C62.2203 10.8828 62.469 10.9159 62.6182 10.9821V13.9366C62.5353 13.9034 62.4193 13.8869 62.27 13.8869C62.1208 13.8703 61.9384 13.8621 61.7229 13.8621C60.5125 13.8621 59.6089 14.1269 59.012 14.6566C58.4151 15.1862 58.1167 16.0303 58.1167 17.189ZM63.9821 23.7931V11.131H67.1157V23.7931H63.9821ZM63.8328 9.04552V5.59448H67.2401V9.04552H63.8328ZM69.9451 23.7931V11.131H73.0041V14.1103H73.0788V23.7931H69.9451ZM78.4756 23.7931V15.6248C78.4756 14.88 78.285 14.3338 77.9036 13.9862C77.5389 13.6221 77.0166 13.44 76.3368 13.44C75.7399 13.44 75.1927 13.5807 74.6953 13.8621C74.1979 14.1434 73.8 14.5407 73.5016 15.0538C73.2197 15.5669 73.0788 16.1628 73.0788 16.8414L72.7554 13.9366C73.1865 13.0097 73.8083 12.2731 74.6207 11.7269C75.4332 11.1641 76.3782 10.8828 77.456 10.8828C78.7492 10.8828 79.7689 11.2552 80.515 12C81.2611 12.7283 81.6342 13.6717 81.6342 14.8303V23.7931H78.4756ZM87.0062 23.7931V15.6248C87.0062 14.88 86.8238 14.3338 86.4591 13.9862C86.0943 13.6221 85.572 13.44 84.8922 13.44C84.2787 13.44 83.7233 13.5807 83.2259 13.8621C82.7285 14.1434 82.3389 14.5407 82.057 15.0538C81.7751 15.5669 81.6342 16.1628 81.6342 16.8414L81.087 13.9366C81.5015 13.0097 82.1316 12.2731 82.9772 11.7269C83.8228 11.1641 84.801 10.8828 85.9119 10.8828C87.2383 10.8828 88.2746 11.2634 89.0207 12.0248C89.7834 12.7697 90.1648 13.7628 90.1648 15.0041V23.7931H87.0062ZM97.6621 24.0414C95.9046 24.0414 94.5035 23.6772 93.459 22.949C92.4144 22.2041 91.8424 21.1779 91.7429 19.8703H94.603C94.6859 20.5159 94.9926 21.0041 95.5232 21.3352C96.0538 21.6662 96.7667 21.8317 97.6621 21.8317C98.4745 21.8317 99.0797 21.7076 99.4776 21.4593C99.8921 21.1945 100.099 20.8221 100.099 20.3421C100.099 19.9945 99.9833 19.7131 99.7512 19.4979C99.5191 19.2662 99.0797 19.0759 98.4331 18.9269L96.3937 18.4552C95.0009 18.1572 93.9647 17.6938 93.2849 17.0648C92.6217 16.4193 92.29 15.6166 92.29 14.6566C92.29 13.4814 92.7377 12.5628 93.6331 11.9007C94.545 11.2221 95.7968 10.8828 97.3885 10.8828C98.9636 10.8828 100.224 11.2221 101.169 11.9007C102.13 12.5628 102.661 13.4814 102.761 14.6566H99.9004C99.8175 14.1434 99.5522 13.7545 99.1046 13.4897C98.6735 13.2248 98.0766 13.0924 97.3139 13.0924C96.6009 13.0924 96.0621 13.2083 95.6973 13.44C95.3325 13.6552 95.1502 13.9779 95.1502 14.4083C95.1502 14.7393 95.2911 15.0207 95.5729 15.2524C95.8548 15.4676 96.3274 15.6579 96.9906 15.8234L99.1792 16.32C100.423 16.6014 101.359 17.0897 101.99 17.7848C102.636 18.48 102.959 19.2993 102.959 20.2428C102.959 21.451 102.495 22.3862 101.567 23.0483C100.638 23.7103 99.3367 24.0414 97.6621 24.0414ZM110.787 24.0414C109.444 24.0414 108.259 23.76 107.231 23.1972C106.22 22.6345 105.432 21.8566 104.868 20.8634C104.305 19.8538 104.023 18.7034 104.023 17.4124C104.023 16.1214 104.305 14.9876 104.868 14.011C105.432 13.0345 106.22 12.2731 107.231 11.7269C108.259 11.1641 109.444 10.8828 110.787 10.8828C112.147 10.8828 113.333 11.1641 114.344 11.7269C115.355 12.2731 116.143 13.0345 116.707 14.011C117.27 14.9876 117.552 16.1214 117.552 17.4124C117.552 18.7034 117.262 19.8538 116.682 20.8634C116.118 21.8566 115.33 22.6345 114.319 23.1972C113.308 23.76 112.13 24.0414 110.787 24.0414ZM110.787 21.5338C111.451 21.5338 112.048 21.3683 112.578 21.0372C113.109 20.6897 113.523 20.2097 113.822 19.5972C114.12 18.9683 114.269 18.2317 114.269 17.3876C114.269 16.1462 113.938 15.1697 113.274 14.4579C112.628 13.7462 111.799 13.3903 110.787 13.3903C109.776 13.3903 108.939 13.7462 108.276 14.4579C107.612 15.1697 107.281 16.1462 107.281 17.3876C107.281 18.2317 107.43 18.9683 107.728 19.5972C108.043 20.2097 108.458 20.6897 108.972 21.0372C109.502 21.3683 110.108 21.5338 110.787 21.5338ZM119.359 23.7931V11.131H122.419V14.1103H122.493V23.7931H119.359ZM128.263 23.7931V15.7986C128.263 15.0207 128.064 14.4331 127.666 14.0359C127.268 13.6386 126.688 13.44 125.925 13.44C125.262 13.44 124.665 13.589 124.135 13.8869C123.621 14.1848 123.214 14.5986 122.916 15.1283C122.634 15.6579 122.493 16.2703 122.493 16.9655L122.17 13.9366C122.601 13.0097 123.231 12.2731 124.06 11.7269C124.889 11.1641 125.884 10.8828 127.044 10.8828C128.421 10.8828 129.49 11.2717 130.253 12.0497C131.032 12.8276 131.422 13.8621 131.422 15.1531V23.7931H128.263ZM140.814 23.7931V21.4097H145.813C146.725 21.4097 147.43 21.1614 147.927 20.6648C148.425 20.1517 148.673 19.4565 148.673 18.5793C148.673 17.669 148.408 16.949 147.878 16.4193C147.347 15.8897 146.609 15.6248 145.664 15.6248H140.814V13.2414H145.44C146.336 13.2414 147.024 13.0262 147.505 12.5959C147.985 12.1655 148.226 11.5448 148.226 10.7338C148.226 9.93931 147.994 9.33517 147.529 8.92138C147.082 8.50759 146.419 8.30069 145.54 8.30069H140.814V5.91724H146.137C147.745 5.91724 149.03 6.32276 149.992 7.13379C150.97 7.92828 151.459 9.01241 151.459 10.3862C151.459 11.2469 151.252 12 150.837 12.6455C150.439 13.2745 149.9 13.7628 149.221 14.1103C148.541 14.4579 147.77 14.6317 146.908 14.6317L147.032 14.1103C147.944 14.1103 148.773 14.3172 149.519 14.731C150.265 15.1283 150.854 15.691 151.285 16.4193C151.733 17.1476 151.956 17.9917 151.956 18.9517C151.956 19.9283 151.724 20.7807 151.26 21.509C150.812 22.2372 150.174 22.8 149.345 23.1972C148.533 23.5945 147.571 23.7931 146.46 23.7931H140.814ZM138.278 23.7931V5.91724H141.511V23.7931H138.278ZM161.649 23.7931C161.566 23.4621 161.499 23.0979 161.45 22.7007C161.416 22.3034 161.4 21.8234 161.4 21.2607H161.3V15.2524C161.3 14.5903 161.11 14.0938 160.728 13.7628C160.364 13.4152 159.8 13.2414 159.037 13.2414C158.291 13.2414 157.694 13.3821 157.247 13.6634C156.815 13.9283 156.55 14.3172 156.451 14.8303H153.441C153.574 13.6552 154.138 12.7034 155.133 11.9752C156.127 11.2469 157.462 10.8828 159.137 10.8828C160.878 10.8828 162.196 11.28 163.091 12.0745C163.986 12.8524 164.434 14.0028 164.434 15.5255V21.2607C164.434 21.6579 164.459 22.0634 164.509 22.4772C164.575 22.891 164.666 23.3297 164.782 23.7931H161.649ZM157.247 24.0414C155.97 24.0414 154.95 23.7269 154.187 23.0979C153.441 22.4524 153.068 21.5917 153.068 20.5159C153.068 19.3572 153.491 18.4386 154.337 17.76C155.182 17.0814 156.376 16.6262 157.918 16.3945L161.872 15.7986V17.7848L158.44 18.3062C157.694 18.4221 157.13 18.629 156.749 18.9269C156.384 19.2248 156.202 19.6386 156.202 20.1683C156.202 20.6483 156.376 21.0207 156.724 21.2855C157.072 21.5338 157.553 21.6579 158.167 21.6579C159.062 21.6579 159.808 21.4345 160.405 20.9876C161.002 20.5407 161.3 19.9945 161.3 19.349L161.649 21.2607C161.317 22.171 160.77 22.8662 160.007 23.3462C159.261 23.8097 158.341 24.0414 157.247 24.0414ZM167.154 28.8828L170.437 21.5338L171.009 20.5903L174.591 11.131H177.923L170.338 28.8828H167.154ZM169.965 23.669L164.816 11.131H168.224L172.526 22.5021L169.965 23.669Z" fill="#3D3A80"/>
<path d="M183.532 15.5173V8.04417H180.609V6.57935H188.369V8.04417H185.447V15.5173H183.532ZM189.039 15.5173V6.57935H192.024L194.511 15.1945H193.429L195.916 6.57935H198.913V15.5173H197.023V7.11314H197.346L194.921 15.5173H192.944L190.544 7.18762H190.855V15.5173H189.039Z" fill="#3D3A80"/>
</svg>
