<svg width="58" height="60" viewBox="0 0 58 60" fill="none" xmlns="http://www.w3.org/2000/svg">
<path d="M1.17905 41.5376L6.51687 43.3206C6.69604 43.3859 6.88517 43.4196 7.07583 43.4205C7.38566 43.4193 7.68952 43.335 7.95576 43.1766L26.2152 32.237C26.4465 32.8948 26.7262 33.5346 27.0521 34.151L23.8523 38.4407C23.5845 38.804 23.47 39.2578 23.5333 39.7047L23.7973 41.5566L21.8123 42.1447C21.074 42.3591 20.5696 43.0398 20.5793 43.8085C20.5987 44.2269 20.6505 44.6431 20.7344 45.0535L20.8124 45.5535L18.8124 46.1445C18.0008 46.391 17.4905 47.1927 17.6105 48.0324L17.8275 49.5634L15.9056 50.1354C14.3418 50.5932 13.4035 52.188 13.7627 53.7772L14.8627 58.6531C15.0281 59.4329 15.7134 59.9931 16.5106 60C16.5556 60 16.6017 60 16.6476 59.994L22.2574 59.61C22.7674 59.5881 23.2399 59.3362 23.5423 58.9251L36.6759 41.3157C41.6398 42.3176 46.7574 40.5561 50.0529 36.7113C53.3486 32.8664 54.3066 27.5396 52.5573 22.7874C56.7945 19.8887 58.8251 14.6916 57.6754 9.68827C56.5257 4.68489 52.43 0.895533 47.3526 0.137357C42.2751 -0.620819 37.2511 1.80675 34.6899 6.25597C30.7189 6.20734 26.9153 7.85306 24.2322 10.7808C21.549 13.7085 20.2404 17.6408 20.6343 21.5925L16.0224 24.3504C15.6459 24.587 15.3755 24.9599 15.2674 25.3913L14.8104 27.2012L12.7524 26.9892C11.9857 26.9033 11.2562 27.3405 10.9705 28.0572C10.8289 28.459 10.7185 28.8713 10.6405 29.2902L10.5265 29.7692L8.46961 29.5612C7.61687 29.4606 6.82154 30.0077 6.61073 30.8401L6.23375 32.34L4.24187 32.14C3.58002 32.0657 2.91219 32.212 2.34198 32.556C1.55591 33.0154 1.01487 33.8007 0.866052 34.6989L0.0311205 39.6177C-0.13235 40.4569 0.362515 41.2844 1.17905 41.5376ZM49.7533 33.7059C47.0645 38.2944 41.6616 40.5467 36.5098 39.2268C36.1176 39.1269 35.704 39.2734 35.4619 39.5978L22.0214 57.6231L16.7626 57.983L15.7106 53.3452C15.6408 53.0319 15.7097 52.7038 15.8996 52.4452C16.0421 52.2573 16.2412 52.1202 16.4676 52.0541L18.6295 51.4112C19.4479 51.1736 19.964 50.3668 19.8365 49.5243L19.6195 47.9933L21.6195 47.4023C22.4392 47.1642 22.9552 46.3551 22.8254 45.5113L22.7064 44.7393C22.6604 44.4473 22.6165 44.1784 22.5924 43.9973L24.6103 43.4004C25.4255 43.16 25.9379 42.3546 25.8103 41.5144L25.5283 39.5345L29.0413 34.8236C29.2828 34.5001 29.3061 34.063 29.1002 33.7157C26.0449 28.5748 27.2411 21.9691 31.9052 18.2262C36.5694 14.4834 43.2774 14.7461 47.6345 18.8422C48.5973 19.7415 49.4027 20.7957 50.0174 21.961C48.8665 22.5118 47.6236 22.8454 46.3516 22.945C46.0406 21.0758 44.457 19.6837 42.5633 19.615C40.6696 19.5463 38.9893 20.82 38.5437 22.6618C38.098 24.5035 39.0104 26.4045 40.7261 27.2089C42.4418 28.0134 44.4866 27.4992 45.6175 25.9789C45.8441 25.6667 46.023 25.3226 46.1485 24.9578C47.7602 24.8787 49.3412 24.4857 50.8023 23.8009C51.9069 27.0985 51.5241 30.7132 49.7533 33.7059ZM41.1537 22.0394C41.4311 21.8109 41.7653 21.6618 42.1207 21.6084C42.2177 21.5944 42.3157 21.5874 42.4136 21.5874C43.2582 21.5899 44.0101 22.1225 44.2926 22.9184C43.2066 22.7936 42.1465 22.4969 41.1537 22.0394ZM43.9145 24.8913C43.4113 25.4795 42.6125 25.7221 41.8671 25.5131C41.1217 25.304 40.5655 24.6814 40.4416 23.9173C41.5455 24.4105 42.716 24.7386 43.9155 24.8912L43.9145 24.8913ZM45.5095 2.0021C50.0442 1.99553 54.069 4.9052 55.4845 9.21332C56.9 13.5215 55.3851 18.2512 51.7303 20.9354C51.0199 19.6087 50.0968 18.4074 48.9974 17.3795C48.6974 17.1025 48.3894 16.8514 48.0754 16.6035C47.881 15.8586 47.6241 15.1313 47.3073 14.4296C45.6658 10.7924 42.5375 8.03821 38.7217 6.87095C38.1314 6.69341 37.5301 6.55479 36.9217 6.456C38.8831 3.65544 42.0906 1.9919 45.5095 2.0021ZM2.84704 35.0319C2.89883 34.7128 3.09113 34.4338 3.37096 34.2719C3.57041 34.1502 3.80478 34.0985 4.03692 34.125L6.28578 34.355C7.13138 34.4517 7.91545 33.9005 8.11068 33.0721L8.48871 31.5721L10.5677 31.7861C11.4168 31.8659 12.1969 31.3135 12.4036 30.4862L12.5796 29.7472C12.6495 29.4543 12.7115 29.1812 12.7585 29.0003L14.8525 29.2153C15.6971 29.3075 16.4793 28.7596 16.6814 27.9344L17.1753 25.9845L22.214 22.9726C22.5601 22.7659 22.748 22.3716 22.691 21.9727C21.8352 16.1452 25.3392 10.5591 30.9583 8.79287C36.5773 7.02668 42.6471 9.60366 45.2791 14.8729C43.0586 13.8439 40.6048 13.4234 38.1683 13.654C34.2284 14.0072 30.6218 16.0107 28.2402 19.1692C25.8587 22.3277 24.9245 26.3463 25.6687 30.2314L7.04583 41.3887L2.05101 39.7207L2.84704 35.0319Z" fill="#3D3A80"/>
</svg>
