<svg width="175" height="30" viewBox="0 0 175 30" fill="none" xmlns="http://www.w3.org/2000/svg">
<path d="M1.24805 22.9999V21.6799C1.69605 21.6639 2.04005 21.5919 2.28005 21.4639C2.52005 21.3199 2.68805 21.0799 2.78405 20.7439C2.88005 20.3919 2.92805 19.9119 2.92805 19.3039V9.72788C2.92805 9.32788 2.93605 8.94388 2.95205 8.57588C2.98405 8.20788 3.00805 7.91988 3.02405 7.71188C2.75205 7.72788 2.44005 7.74388 2.08805 7.75988C1.73605 7.75988 1.45605 7.76788 1.24805 7.78388V6.19988H7.63205V7.51988C7.20005 7.53588 6.85605 7.61588 6.60005 7.75988C6.36005 7.88788 6.19205 8.11988 6.09605 8.45588C6.00005 8.79188 5.95205 9.27188 5.95205 9.89588V19.4479C5.95205 19.8799 5.94405 20.2799 5.92805 20.6479C5.91205 20.9999 5.88805 21.2799 5.85605 21.4879L9.50405 21.4639C10.464 21.4639 11.208 21.1439 11.736 20.5039C12.264 19.8479 12.528 18.8479 12.528 17.5039H13.872L13.728 22.9999H1.24805ZM19.7454 23.3839C18.6094 23.3839 17.5774 23.1359 16.6494 22.6399C15.7214 22.1279 14.9854 21.4159 14.4414 20.5039C13.9134 19.5759 13.6494 18.4959 13.6494 17.2639C13.6494 15.9679 13.9214 14.8159 14.4654 13.8079C15.0094 12.7999 15.7374 12.0159 16.6494 11.4559C17.5774 10.8959 18.5934 10.6159 19.6974 10.6159C20.8334 10.6159 21.8574 10.8719 22.7694 11.3839C23.6814 11.8959 24.4014 12.6079 24.9294 13.5199C25.4734 14.4319 25.7454 15.5119 25.7454 16.7599C25.7454 18.0719 25.4814 19.2319 24.9534 20.2399C24.4414 21.2319 23.7294 22.0079 22.8174 22.5679C21.9214 23.1119 20.8974 23.3839 19.7454 23.3839ZM19.8654 21.9199C20.5854 21.9199 21.1374 21.6959 21.5214 21.2479C21.9054 20.7999 22.1694 20.2319 22.3134 19.5439C22.4734 18.8399 22.5534 18.1199 22.5534 17.3839C22.5534 16.7599 22.4974 16.1279 22.3854 15.4879C22.2894 14.8479 22.1294 14.2719 21.9054 13.7599C21.6814 13.2319 21.3854 12.8159 21.0174 12.5119C20.6494 12.1919 20.2014 12.0319 19.6734 12.0319C18.9694 12.0479 18.4094 12.2799 17.9934 12.7279C17.5774 13.1759 17.2734 13.7439 17.0814 14.4319C16.9054 15.1199 16.8174 15.8479 16.8174 16.6159C16.8174 17.4799 16.9214 18.3279 17.1294 19.1599C17.3374 19.9759 17.6654 20.6479 18.1134 21.1759C18.5614 21.6879 19.1454 21.9359 19.8654 21.9199ZM32.0398 23.3839C30.9038 23.3839 29.8718 23.1359 28.9438 22.6399C28.0158 22.1279 27.2798 21.4159 26.7358 20.5039C26.2078 19.5759 25.9438 18.4959 25.9438 17.2639C25.9438 15.9679 26.2158 14.8159 26.7598 13.8079C27.3038 12.7999 28.0318 12.0159 28.9438 11.4559C29.8718 10.8959 30.8878 10.6159 31.9918 10.6159C33.1278 10.6159 34.1518 10.8719 35.0638 11.3839C35.9758 11.8959 36.6958 12.6079 37.2238 13.5199C37.7678 14.4319 38.0398 15.5119 38.0398 16.7599C38.0398 18.0719 37.7758 19.2319 37.2478 20.2399C36.7358 21.2319 36.0238 22.0079 35.1118 22.5679C34.2158 23.1119 33.1918 23.3839 32.0398 23.3839ZM32.1598 21.9199C32.8798 21.9199 33.4318 21.6959 33.8158 21.2479C34.1998 20.7999 34.4638 20.2319 34.6078 19.5439C34.7678 18.8399 34.8478 18.1199 34.8478 17.3839C34.8478 16.7599 34.7918 16.1279 34.6798 15.4879C34.5838 14.8479 34.4238 14.2719 34.1998 13.7599C33.9758 13.2319 33.6798 12.8159 33.3118 12.5119C32.9438 12.1919 32.4958 12.0319 31.9678 12.0319C31.2638 12.0479 30.7038 12.2799 30.2878 12.7279C29.8718 13.1759 29.5678 13.7439 29.3758 14.4319C29.1998 15.1199 29.1118 15.8479 29.1118 16.6159C29.1118 17.4799 29.2158 18.3279 29.4238 19.1599C29.6318 19.9759 29.9598 20.6479 30.4078 21.1759C30.8558 21.6879 31.4398 21.9359 32.1598 21.9199ZM38.4302 22.9999V21.7279C38.8942 21.7279 39.2222 21.6319 39.4142 21.4399C39.6062 21.2319 39.7262 20.9439 39.7742 20.5759C39.8222 20.2079 39.8462 19.7919 39.8462 19.3279V14.8159C39.8462 14.5279 39.8542 14.2239 39.8702 13.9039C39.8862 13.5839 39.9102 13.2559 39.9422 12.9199C39.6702 12.9359 39.3742 12.9519 39.0542 12.9679C38.7342 12.9839 38.4702 12.9999 38.2622 13.0159V11.4559C38.9822 11.4559 39.5742 11.4239 40.0382 11.3599C40.5022 11.2799 40.8622 11.1839 41.1182 11.0719C41.3742 10.9599 41.5582 10.8559 41.6702 10.7599H42.6782C42.7102 10.9199 42.7262 11.1199 42.7262 11.3599C42.7422 11.5839 42.7582 11.7919 42.7742 11.9839C43.3022 11.5679 43.8782 11.2399 44.5022 10.9999C45.1262 10.7439 45.7342 10.6159 46.3262 10.6159C47.0782 10.6159 47.7022 10.7519 48.1982 11.0239C48.7102 11.2959 49.1102 11.6879 49.3982 12.1999C49.9582 11.7359 50.5902 11.3599 51.2942 11.0719C51.9982 10.7679 52.6782 10.6159 53.3342 10.6159C54.6622 10.6159 55.6542 11.0079 56.3102 11.7919C56.9822 12.5599 57.3102 13.8719 57.2942 15.7279V19.5679C57.2942 19.8239 57.2862 20.1359 57.2702 20.5039C57.2542 20.8559 57.2302 21.1999 57.1982 21.5359C57.4542 21.5039 57.7262 21.4879 58.0142 21.4879C58.3022 21.4719 58.5422 21.4639 58.7342 21.4639V22.9999H53.0462V21.7279C53.4622 21.7279 53.7582 21.6319 53.9342 21.4399C54.1102 21.2319 54.2142 20.9439 54.2462 20.5759C54.2942 20.2079 54.3182 19.7919 54.3182 19.3279V15.7519C54.3182 14.5999 54.1342 13.7759 53.7662 13.2799C53.3982 12.7839 52.8782 12.5359 52.2062 12.5359C51.7582 12.5199 51.3262 12.6079 50.9102 12.7999C50.5102 12.9759 50.1582 13.1919 49.8542 13.4479C49.9342 13.7519 49.9902 14.0799 50.0222 14.4319C50.0542 14.7839 50.0702 15.1599 50.0702 15.5599C50.0702 16.2319 50.0702 16.9039 50.0702 17.5759C50.0702 18.2319 50.0622 18.8959 50.0462 19.5679C50.0462 19.8239 50.0382 20.1359 50.0222 20.5039C50.0222 20.8559 49.9982 21.1999 49.9502 21.5359C50.2062 21.5039 50.4782 21.4879 50.7662 21.4879C51.0542 21.4719 51.3022 21.4639 51.5102 21.4639V22.9999H45.7502V21.7279C46.1822 21.7279 46.4862 21.6319 46.6622 21.4399C46.8542 21.2319 46.9742 20.9439 47.0222 20.5759C47.0702 20.2079 47.0942 19.7919 47.0942 19.3279V15.7039C47.0942 14.5519 46.9182 13.7359 46.5662 13.2559C46.2302 12.7599 45.7262 12.5039 45.0542 12.4879C44.6222 12.4879 44.2062 12.5839 43.8062 12.7759C43.4222 12.9679 43.0862 13.1999 42.7982 13.4719C42.7982 13.6799 42.7982 13.8879 42.7982 14.0959C42.7982 14.2879 42.7982 14.4879 42.7982 14.6959V19.5679C42.7982 19.8239 42.7902 20.1359 42.7742 20.5039C42.7742 20.8559 42.7502 21.1999 42.7022 21.5359C42.9582 21.5039 43.2142 21.4879 43.4702 21.4879C43.7422 21.4719 43.9742 21.4639 44.1662 21.4639V22.9999H38.4302ZM69.0501 23.3839C68.3621 23.3839 67.6741 23.2959 66.9861 23.1199C66.3141 22.9439 65.7061 22.6799 65.1621 22.3279C64.6181 21.9599 64.1781 21.4879 63.8421 20.9119C63.5221 20.3359 63.3621 19.6479 63.3621 18.8479C63.3621 17.7759 63.7141 16.8319 64.4181 16.0159C65.1221 15.1999 66.0261 14.5759 67.1301 14.1439C66.6021 13.5519 66.1941 13.0079 65.9061 12.5119C65.6341 12.0159 65.4501 11.5439 65.3541 11.0959C65.2581 10.6319 65.2101 10.1679 65.2101 9.70388C65.2261 8.51988 65.6501 7.57588 66.4821 6.87188C67.3141 6.16788 68.4021 5.81588 69.7461 5.81588C70.5781 5.81588 71.2981 5.98388 71.9061 6.31988C72.5301 6.65588 73.0101 7.09588 73.3461 7.63988C73.6821 8.18388 73.8501 8.78388 73.8501 9.43988C73.8501 10.0799 73.6981 10.6879 73.3941 11.2639C73.0901 11.8239 72.6661 12.3519 72.1221 12.8479C71.5781 13.3279 70.9541 13.7679 70.2501 14.1679C70.4261 14.3599 70.7301 14.6799 71.1621 15.1279C71.5941 15.5759 72.0901 16.0719 72.6501 16.6159C73.2101 17.1599 73.7621 17.6879 74.3061 18.1999C74.3701 17.9759 74.4101 17.7519 74.4261 17.5279C74.4581 17.3039 74.4741 17.0879 74.4741 16.8799C74.4741 16.4639 74.4261 16.1119 74.3301 15.8239C74.2341 15.5359 74.0741 15.3119 73.8501 15.1519C73.6421 14.9759 73.3621 14.8799 73.0101 14.8639V13.5919H77.1141V15.1039L75.5541 15.0319C75.6981 15.2239 75.8021 15.4639 75.8661 15.7519C75.9461 16.0239 75.9861 16.3279 75.9861 16.6639C75.9861 17.0799 75.9461 17.5119 75.8661 17.9599C75.8021 18.4079 75.6901 18.8479 75.5301 19.2799C75.6261 19.3599 75.7221 19.4559 75.8181 19.5679C75.9301 19.6639 76.0421 19.7599 76.1541 19.8559C76.8101 20.4159 77.3941 20.8639 77.9061 21.1999C78.4341 21.5199 78.8421 21.6799 79.1301 21.6799V22.9999H76.6821C76.5541 22.9999 76.2581 22.8719 75.7941 22.6159C75.3301 22.3599 74.7701 21.9599 74.1141 21.4159C73.5381 22.0079 72.8261 22.4879 71.9781 22.8559C71.1301 23.2079 70.1541 23.3839 69.0501 23.3839ZM69.6741 21.8479C70.4101 21.8639 71.0582 21.7439 71.6181 21.4879C72.1781 21.2319 72.6501 20.8959 73.0341 20.4799C72.8581 20.3199 72.6822 20.1679 72.5061 20.0239C72.3461 19.8639 72.1781 19.7039 72.0021 19.5439C71.0261 18.6319 70.2101 17.8479 69.5541 17.1919C68.8981 16.5199 68.3141 15.8879 67.8021 15.2959C67.4181 15.5519 67.1221 15.8719 66.9141 16.2559C66.7061 16.6239 66.5541 16.9919 66.4581 17.3599C66.3781 17.7279 66.3381 18.0479 66.3381 18.3199C66.3381 19.0879 66.4821 19.7359 66.7701 20.2639C67.0582 20.7919 67.4501 21.1839 67.9461 21.4399C68.4421 21.6959 69.0182 21.8319 69.6741 21.8479ZM69.3381 13.1119C70.0421 12.6159 70.5701 12.0159 70.9221 11.3119C71.2741 10.5919 71.4501 9.95188 71.4501 9.39188C71.4501 8.75188 71.2901 8.22388 70.9701 7.80788C70.6501 7.39188 70.2021 7.18388 69.6261 7.18388C69.0981 7.18388 68.6581 7.39188 68.3061 7.80788C67.9541 8.20788 67.7781 8.79188 67.7781 9.55988C67.7781 10.1199 67.9301 10.7199 68.2341 11.3599C68.5381 11.9999 68.9061 12.5839 69.3381 13.1119ZM83.6524 22.9999V21.6799C84.1004 21.6639 84.4445 21.5919 84.6844 21.4639C84.9244 21.3199 85.0924 21.0799 85.1884 20.7439C85.2844 20.3919 85.3324 19.9119 85.3324 19.3039V9.72788C85.3324 9.32788 85.3404 8.94388 85.3564 8.57588C85.3884 8.20788 85.4124 7.91988 85.4284 7.71188C85.1564 7.72788 84.8444 7.74388 84.4924 7.75988C84.1404 7.75988 83.8604 7.76788 83.6524 7.78388V6.19988H90.0364V7.51988C89.6044 7.53588 89.2604 7.61588 89.0044 7.75988C88.7645 7.88788 88.5964 8.11988 88.5004 8.45588C88.4044 8.79188 88.3564 9.27188 88.3564 9.89588V19.4479C88.3564 19.8799 88.3484 20.2799 88.3324 20.6479C88.3164 20.9999 88.2924 21.2799 88.2604 21.4879L91.9084 21.4639C92.8684 21.4639 93.6124 21.1439 94.1404 20.5039C94.6684 19.8479 94.9324 18.8479 94.9324 17.5039H96.2764L96.1324 22.9999H83.6524ZM101.982 23.3839C100.83 23.3839 99.8058 23.1279 98.9098 22.6159C98.0138 22.0879 97.3178 21.3519 96.8218 20.4079C96.3258 19.4479 96.0778 18.3199 96.0778 17.0239C96.0778 15.9039 96.3258 14.8559 96.8218 13.8799C97.3178 12.9039 98.0138 12.1199 98.9098 11.5279C99.8218 10.9199 100.878 10.6159 102.078 10.6159C102.75 10.6159 103.398 10.7119 104.022 10.9039C104.646 11.0959 105.206 11.4159 105.702 11.8639C106.198 12.3119 106.59 12.9039 106.878 13.6399C107.182 14.3759 107.326 15.2719 107.31 16.3279L99.2458 16.4719C99.2458 17.4639 99.3578 18.3439 99.5818 19.1119C99.8218 19.8639 100.206 20.4639 100.734 20.9119C101.262 21.3439 101.958 21.5599 102.822 21.5599C103.206 21.5599 103.614 21.4959 104.046 21.3679C104.494 21.2239 104.934 21.0159 105.366 20.7439C105.798 20.4559 106.182 20.1039 106.518 19.6879L107.43 20.5279C106.902 21.2959 106.318 21.8879 105.678 22.3039C105.038 22.7199 104.398 22.9999 103.758 23.1439C103.118 23.3039 102.526 23.3839 101.982 23.3839ZM99.3658 15.0319H104.358C104.342 14.3919 104.246 13.8559 104.07 13.4239C103.91 12.9759 103.67 12.6399 103.35 12.4159C103.03 12.1759 102.638 12.0559 102.174 12.0559C101.39 12.0559 100.758 12.3199 100.278 12.8479C99.8138 13.3599 99.5098 14.0879 99.3658 15.0319ZM112.496 23.3839C111.536 23.3839 110.68 23.1359 109.928 22.6399C109.176 22.1439 108.584 21.4399 108.152 20.5279C107.736 19.6159 107.528 18.5439 107.528 17.3119C107.528 16.0159 107.784 14.8639 108.296 13.8559C108.808 12.8479 109.512 12.0559 110.408 11.4799C111.32 10.9039 112.368 10.6159 113.552 10.6159C114.016 10.6159 114.448 10.6719 114.848 10.7839C115.264 10.8799 115.624 10.9919 115.928 11.1199V8.98388C115.928 8.74388 115.928 8.44788 115.928 8.09588C115.944 7.74388 115.968 7.39188 116 7.03988C115.744 7.05588 115.448 7.07188 115.112 7.08788C114.792 7.10388 114.52 7.11988 114.296 7.13588V5.57588C115.032 5.57588 115.632 5.54388 116.096 5.47988C116.56 5.39988 116.92 5.30388 117.176 5.19188C117.448 5.07988 117.64 4.97588 117.752 4.87988H118.856V19.5679C118.856 19.8079 118.848 20.1119 118.832 20.4799C118.816 20.8319 118.792 21.1839 118.76 21.5359C119.032 21.5039 119.312 21.4879 119.6 21.4879C119.904 21.4719 120.16 21.4559 120.368 21.4399V22.9999H116.192C116.16 22.8079 116.128 22.6159 116.096 22.4239C116.08 22.2159 116.056 22.0239 116.024 21.8479C115.528 22.3759 114.984 22.7599 114.392 22.9999C113.8 23.2559 113.168 23.3839 112.496 23.3839ZM113.624 21.5359C114.072 21.5359 114.504 21.4159 114.92 21.1759C115.336 20.9199 115.672 20.6079 115.928 20.2399C115.912 20.0159 115.904 19.7919 115.904 19.5679C115.904 19.3279 115.904 19.0879 115.904 18.8479L115.928 12.7039C115.688 12.5119 115.384 12.3679 115.016 12.2719C114.648 12.1599 114.272 12.1039 113.888 12.1039C113.136 12.1199 112.52 12.3599 112.04 12.8239C111.576 13.2719 111.232 13.8639 111.008 14.5999C110.8 15.3359 110.704 16.1359 110.72 16.9999C110.72 17.7839 110.824 18.5199 111.032 19.2079C111.24 19.8959 111.552 20.4559 111.968 20.8879C112.4 21.3199 112.952 21.5359 113.624 21.5359ZM125.953 29.5039C124.545 29.5039 123.425 29.3519 122.593 29.0479C121.777 28.7439 121.185 28.3439 120.817 27.8479C120.465 27.3679 120.289 26.8639 120.289 26.3359C120.289 25.9359 120.377 25.5599 120.553 25.2079C120.729 24.8719 120.985 24.5519 121.321 24.2479C121.657 23.9439 122.065 23.7039 122.545 23.5279C121.937 23.3519 121.497 23.0879 121.225 22.7359C120.953 22.3679 120.817 21.9519 120.817 21.4879C120.817 21.0239 121.001 20.5359 121.369 20.0239C121.753 19.5119 122.353 19.1519 123.169 18.9439C122.481 18.6399 121.913 18.1919 121.465 17.5999C121.033 17.0079 120.809 16.3039 120.793 15.4879C120.777 14.5279 121.017 13.6799 121.513 12.9439C122.025 12.2079 122.689 11.6399 123.505 11.2399C124.321 10.8239 125.169 10.6159 126.049 10.6159C126.497 10.6159 126.993 10.6799 127.537 10.8079C128.081 10.9359 128.561 11.1359 128.977 11.4079C129.137 10.9279 129.361 10.4879 129.649 10.0879C129.937 9.67188 130.273 9.33588 130.657 9.07988C131.057 8.82388 131.497 8.69588 131.977 8.69588C132.473 8.69588 132.849 8.82388 133.105 9.07988C133.361 9.33588 133.489 9.67988 133.489 10.1119C133.489 10.2879 133.449 10.4799 133.369 10.6879C133.289 10.8959 133.153 11.0719 132.961 11.2159C132.769 11.3599 132.505 11.4319 132.169 11.4319C131.913 11.4319 131.673 11.3439 131.449 11.1679C131.241 10.9919 131.113 10.7759 131.065 10.5199C130.793 10.5839 130.545 10.7839 130.321 11.1199C130.113 11.4559 129.985 11.7759 129.937 12.0799C130.369 12.4639 130.705 12.9199 130.945 13.4479C131.185 13.9599 131.305 14.5119 131.305 15.1039C131.305 16.0159 131.049 16.8319 130.537 17.5519C130.041 18.2559 129.385 18.8079 128.569 19.2079C127.769 19.6079 126.905 19.8079 125.977 19.8079C125.737 19.8079 125.497 19.7999 125.257 19.7839C125.017 19.7519 124.761 19.7359 124.489 19.7359C124.057 19.7359 123.697 19.8239 123.409 19.9999C123.137 20.1759 123.017 20.4079 123.049 20.6959C123.097 21.0319 123.385 21.2559 123.913 21.3679C124.441 21.4639 125.257 21.5439 126.361 21.6079C127.593 21.6719 128.665 21.8239 129.577 22.0639C130.489 22.3039 131.193 22.6799 131.689 23.1919C132.185 23.7199 132.433 24.4399 132.433 25.3519C132.433 26.0239 132.241 26.6159 131.857 27.1279C131.473 27.6399 130.961 28.0719 130.321 28.4239C129.697 28.7759 129.001 29.0399 128.233 29.2159C127.481 29.4079 126.721 29.5039 125.953 29.5039ZM126.409 28.0879C127.625 28.0879 128.553 27.8639 129.193 27.4159C129.833 26.9679 130.153 26.4799 130.153 25.9519C130.153 25.5359 130.001 25.1999 129.697 24.9439C129.393 24.7039 128.961 24.5199 128.401 24.3919C127.841 24.2639 127.145 24.1839 126.313 24.1519C125.945 24.1359 125.537 24.1119 125.089 24.0799C124.641 24.0639 124.233 24.0239 123.865 23.9599C123.561 24.1839 123.321 24.4639 123.145 24.7999C122.985 25.1359 122.905 25.4719 122.905 25.8079C122.873 26.4959 123.177 27.0479 123.817 27.4639C124.457 27.8799 125.321 28.0879 126.409 28.0879ZM126.073 18.4639C126.553 18.4639 126.953 18.3279 127.273 18.0559C127.609 17.7679 127.857 17.4079 128.017 16.9759C128.193 16.5279 128.281 16.0559 128.281 15.5599C128.281 14.9519 128.201 14.3759 128.041 13.8319C127.881 13.2719 127.633 12.8239 127.297 12.4879C126.961 12.1359 126.537 11.9599 126.025 11.9599C125.305 11.9599 124.745 12.2639 124.345 12.8719C123.961 13.4639 123.769 14.1679 123.769 14.9839C123.769 15.6079 123.857 16.1919 124.033 16.7359C124.225 17.2639 124.489 17.6879 124.825 18.0079C125.177 18.3119 125.593 18.4639 126.073 18.4639ZM138.068 23.3839C136.916 23.3839 135.892 23.1279 134.996 22.6159C134.1 22.0879 133.404 21.3519 132.908 20.4079C132.412 19.4479 132.164 18.3199 132.164 17.0239C132.164 15.9039 132.412 14.8559 132.908 13.8799C133.404 12.9039 134.1 12.1199 134.996 11.5279C135.908 10.9199 136.964 10.6159 138.164 10.6159C138.836 10.6159 139.484 10.7119 140.108 10.9039C140.732 11.0959 141.292 11.4159 141.788 11.8639C142.284 12.3119 142.676 12.9039 142.964 13.6399C143.268 14.3759 143.412 15.2719 143.396 16.3279L135.332 16.4719C135.332 17.4639 135.444 18.3439 135.668 19.1119C135.908 19.8639 136.292 20.4639 136.82 20.9119C137.348 21.3439 138.044 21.5599 138.908 21.5599C139.292 21.5599 139.7 21.4959 140.132 21.3679C140.58 21.2239 141.02 21.0159 141.452 20.7439C141.884 20.4559 142.268 20.1039 142.604 19.6879L143.516 20.5279C142.988 21.2959 142.404 21.8879 141.764 22.3039C141.124 22.7199 140.484 22.9999 139.844 23.1439C139.204 23.3039 138.612 23.3839 138.068 23.3839ZM135.452 15.0319H140.444C140.428 14.3919 140.332 13.8559 140.156 13.4239C139.996 12.9759 139.756 12.6399 139.436 12.4159C139.116 12.1759 138.724 12.0559 138.26 12.0559C137.476 12.0559 136.844 12.3199 136.364 12.8479C135.9 13.3599 135.596 14.0879 135.452 15.0319ZM143.83 21.7279C144.294 21.7279 144.622 21.6319 144.814 21.4399C145.006 21.2319 145.126 20.9439 145.174 20.5759C145.222 20.2079 145.246 19.7919 145.246 19.3279V14.8159C145.246 14.5279 145.254 14.2239 145.27 13.9039C145.286 13.5839 145.31 13.2559 145.342 12.9199C145.07 12.9359 144.774 12.9519 144.454 12.9679C144.134 12.9679 143.87 12.9759 143.662 12.9919V11.4559H144.55C145.19 11.4559 145.726 11.3839 146.158 11.2399C146.59 11.0799 146.894 10.9199 147.07 10.7599H148.078C148.11 10.9519 148.134 11.2559 148.15 11.6719C148.166 12.0879 148.174 12.5039 148.174 12.9199C148.542 12.4399 148.926 12.0319 149.326 11.6959C149.726 11.3439 150.134 11.0799 150.55 10.9039C150.982 10.7119 151.422 10.6159 151.87 10.6159C152.382 10.6159 152.83 10.7599 153.214 11.0479C153.614 11.3359 153.814 11.7999 153.814 12.4399C153.814 12.6479 153.758 12.8719 153.646 13.1119C153.55 13.3519 153.39 13.5519 153.166 13.7119C152.958 13.8719 152.67 13.9519 152.302 13.9519C151.966 13.9519 151.646 13.8479 151.342 13.6399C151.054 13.4159 150.902 13.0639 150.886 12.5839C150.55 12.5679 150.198 12.6879 149.83 12.9439C149.478 13.1999 149.158 13.5119 148.87 13.8799C148.582 14.2479 148.358 14.6239 148.198 15.0079L148.222 19.5679C148.222 19.8239 148.214 20.1359 148.198 20.5039C148.182 20.8559 148.158 21.1999 148.126 21.5359C148.382 21.5039 148.654 21.4879 148.942 21.4879C149.23 21.4719 149.47 21.4639 149.662 21.4639V22.9999H143.83V21.7279Z" fill="#3D3A80"/>
<path d="M159.107 15.0001V7.77611H156.287V6.36011H163.775V7.77611H160.955V15.0001H159.107ZM164.422 15.0001V6.36011H167.302L169.702 14.6881H168.658L171.058 6.36011H173.95V15.0001H172.126V6.87611H172.438L170.098 15.0001H168.19L165.874 6.94811H166.174V15.0001H164.422Z" fill="#3D3A80"/>
</svg>
