<svg width="60" height="45" viewBox="0 0 60 45" fill="none" xmlns="http://www.w3.org/2000/svg">
<path d="M51.3 15.4009C53.0064 13.7297 54 11.4468 54 9C54 4.0376 49.9629 0 45 0C43.3603 0 41.7471 0.4507 40.333 1.30371C39.8604 1.58941 39.708 2.20359 39.9932 2.6768C40.2783 3.15 40.8935 3.3008 41.3662 3.0166C42.4688 2.3516 43.7246 2.00004 45 2.00004C48.8593 2.00004 52 5.1402 52 9C52 11.3769 50.8096 13.5679 48.8115 14.8637C47.1338 15.9643 45.0068 16.2817 43.0644 15.7284C42.5391 15.577 41.9804 15.8837 41.8281 16.4149C41.6767 16.9461 41.9843 17.4994 42.5156 17.6512C43.3242 17.8827 44.1601 17.9999 45 17.9999C46.5724 17.9999 48.0923 17.571 49.4418 16.7964C54.5753 18.6565 58 23.5032 58 28.9999V34H48.8814C48.1731 27.3207 43.971 21.4759 37.8417 18.7005C39.7922 16.7147 40.9999 13.9969 40.9999 11C41 4.9345 36.0654 0 30 0C23.9346 0 19 4.9345 19 11C19 13.9978 20.2084 16.7164 22.1599 18.7025C20.0972 19.6397 18.1841 20.9508 16.5615 22.5641C13.451 25.6835 11.5582 29.6872 11.1089 34.0002H2.00004V29.0002C2.00004 25.5373 3.35262 22.2722 5.80477 19.8097C7.15465 18.4684 8.79809 17.4451 10.5676 16.802C11.9173 17.5734 13.4326 18 15 18C15.8399 18 16.6758 17.8828 17.4844 17.6514C18.0156 17.4995 18.3232 16.9462 18.1719 16.415C18.0196 15.8838 17.4609 15.5776 16.9356 15.7286C14.9941 16.2827 12.8682 15.9659 11.1837 14.8614C9.19055 13.5679 8.00004 11.377 8.00004 9C8.00004 5.1402 11.1407 2.00004 15 2.00004C16.2754 2.00004 17.5312 2.3516 18.6337 3.0166C19.1084 3.3008 19.7207 3.1485 20.0068 2.6768C20.292 2.20371 20.1396 1.58941 19.667 1.30371C18.2529 0.4507 16.6397 0 15 0C10.0371 0 6 4.0376 6 9C6 11.4449 6.99199 13.7261 8.69344 15.3957C7.10754 16.133 5.64281 17.1507 4.39066 18.3946C1.55953 21.2382 0 25.0044 0 29V35C0 35.5523 0.447305 36 0.999961 36H10.9999V44C10.9999 44.5523 11.4472 45 11.9999 45H47.9999C48.5527 45 48.9998 44.5522 48.9998 44V36H58.9998C59.5526 36 59.9998 35.5522 59.9998 35V29C60 23.0873 56.5638 17.8275 51.3 15.4009ZM21 11C21 6.0376 25.0371 2.00004 30 2.00004C34.9629 2.00004 39 6.0376 39 11C39 15.9625 34.9629 20 30 20C25.0371 20 21 15.9623 21 11ZM47 43H13V36C13 31.4658 14.7675 27.1958 17.9746 23.979C19.6641 22.2986 21.7123 20.9951 23.9082 20.1518C25.6537 21.3175 27.7481 22 30 22C32.2556 22 34.3536 21.3155 36.1008 20.1463C42.6373 22.6577 47 28.9594 47 36V43Z" fill="#3D3A80"/>
</svg>
