<svg width="24" height="24" viewBox="0 0 24 24" fill="none" xmlns="http://www.w3.org/2000/svg">
<g clip-path="url(#clip0_19_222)">
<path d="M2.97756 22.9068C2.76213 23.2299 2.84945 23.6664 3.17256 23.8818C3.28779 23.9589 3.42332 24 3.56195 24C3.78916 24 4.01214 23.89 4.14761 23.6868L4.68349 22.883C4.25184 22.6936 3.83841 22.4652 3.44838 22.2005L2.97756 22.9068ZM20.5518 22.2005C20.1618 22.4652 19.7483 22.6936 19.3167 22.883L19.8526 23.6868C19.9881 23.89 20.211 24 20.4382 24C20.5722 24 20.7078 23.9618 20.8276 23.8818C21.1508 23.6664 21.238 23.2299 21.0226 22.9068L20.5518 22.2005ZM1.45324 13.6004V15.7969C1.45324 19.2862 4.29203 22.125 7.78136 22.125H16.2189C19.7082 22.125 22.547 19.2862 22.547 15.7969V15.3875H10.9286C7.65991 15.3875 4.47813 14.7864 1.45324 13.6004ZM3.7967 8.28698V2.57812C3.7967 1.93195 4.32241 1.40625 4.96858 1.40625H5.90608C6.55225 1.40625 7.07795 1.93195 7.07795 2.57812V2.91173C5.99102 3.22491 5.20295 4.245 5.20295 5.42977V5.625C5.20295 6.01331 5.51777 6.32812 5.90608 6.32812H9.65608C10.0444 6.32812 10.3592 6.01331 10.3592 5.625V5.39062C10.3592 4.2128 9.565 3.2175 8.48421 2.91061V2.57812C8.48421 1.15655 7.32766 0 5.90608 0H4.96858C3.547 0 2.39046 1.15655 2.39046 2.57812V7.72237C2.50189 7.75636 2.61119 7.79696 2.71778 7.84397C3.07316 8.00182 3.43295 8.14955 3.7967 8.28698ZM22.459 10.993H10.9286C7.8835 10.993 4.92977 10.366 2.14825 9.1297C1.39291 8.79511 0.511142 9.13411 0.176033 9.88795C-0.159076 10.6418 0.180392 11.5251 0.934283 11.8602C4.10055 13.2677 7.4628 13.9812 10.9287 13.9812H22.459C23.2844 13.9812 23.9532 13.3125 23.9532 12.4871C23.9531 11.6617 23.2843 10.993 22.459 10.993Z" fill="#3D3A80"/>
</g>
<defs>
<clipPath id="clip0_19_222">
<rect width="24" height="24" fill="white"/>
</clipPath>
</defs>
</svg>
