<svg width="200" height="30" viewBox="0 0 200 30" fill="none" xmlns="http://www.w3.org/2000/svg">
<path d="M21.9853 27.3255C25.7673 27.2462 28.8083 24.06 28.8083 20.1431C28.8083 18.2381 28.0741 16.4112 26.7671 15.0642L15.1623 3.10352V10.5379C15.1623 11.7813 15.6415 12.9737 16.4946 13.8529L19.2131 16.6548L19.2205 16.6623L23.7788 21.3603C23.9267 21.5129 23.9267 21.7602 23.7788 21.9127C23.6308 22.0653 23.3907 22.0653 23.2427 21.9127L21.6715 20.2933H7.13681L5.56562 21.9127C5.41759 22.0653 5.17758 22.0653 5.02955 21.9127C4.88151 21.7602 4.88151 21.5129 5.02954 21.3603L9.58781 16.6623L9.59521 16.6548L12.3137 13.8529C13.1668 12.9737 13.646 11.7813 13.646 10.5379V3.10352L2.04113 15.0642C0.734211 16.4112 0 18.2381 0 20.1431C0 24.06 3.04105 27.2462 6.82304 27.3255H21.9853Z" fill="#3D3A80"/>
<path d="M44.9575 24.0414C43.6808 24.0414 42.5036 23.8179 41.4259 23.371C40.3647 22.9076 39.4362 22.2621 38.6404 21.4345C37.8445 20.6069 37.231 19.6303 36.8 18.5048C36.3689 17.3793 36.1533 16.1462 36.1533 14.8055C36.1533 13.4648 36.3689 12.24 36.8 11.131C37.231 10.0221 37.8362 9.06207 38.6155 8.25103C39.4114 7.42345 40.3398 6.78621 41.401 6.33931C42.4787 5.89241 43.6642 5.66897 44.9575 5.66897C46.3834 5.66897 47.6683 5.95034 48.8124 6.5131C49.9564 7.07586 50.8932 7.87034 51.6228 8.89655C52.3689 9.90621 52.8248 11.0979 52.9906 12.4717H49.8072C49.6082 11.131 49.0694 10.1048 48.1906 9.3931C47.3119 8.66483 46.2424 8.30069 44.9823 8.30069C43.8715 8.30069 42.9015 8.56552 42.0725 9.09517C41.2435 9.62483 40.5968 10.3779 40.1326 11.3545C39.6683 12.3145 39.4362 13.4566 39.4362 14.7807C39.4362 16.1379 39.6683 17.3131 40.1326 18.3062C40.5968 19.2828 41.2518 20.0441 42.0974 20.5903C42.943 21.1365 43.9129 21.4097 45.0072 21.4097C46.2341 21.4097 47.287 21.0538 48.1658 20.3421C49.0445 19.6138 49.6 18.5876 49.8321 17.2634H53.0404C52.8414 18.6207 52.3689 19.8124 51.6228 20.8386C50.8932 21.8648 49.9564 22.6593 48.8124 23.2221C47.6683 23.7683 46.3834 24.0414 44.9575 24.0414ZM54.982 23.7931V11.131H58.0411V14.1848H58.1157V23.7931H54.982ZM58.1157 17.189L57.7924 14.1848C58.0908 13.109 58.5965 12.2897 59.3095 11.7269C60.0224 11.1641 60.8763 10.8828 61.8711 10.8828C62.2193 10.8828 62.468 10.9159 62.6173 10.9821V13.9366C62.5344 13.9034 62.4183 13.8869 62.2691 13.8869C62.1198 13.8703 61.9375 13.8621 61.7219 13.8621C60.5116 13.8621 59.6079 14.1269 59.011 14.6566C58.4142 15.1862 58.1157 16.0303 58.1157 17.189ZM63.9811 23.7931V11.131H67.1148V23.7931H63.9811ZM63.8319 9.04552V5.59448H67.2391V9.04552H63.8319ZM69.9441 23.7931V11.131H73.0032V14.1103H73.0778V23.7931H69.9441ZM78.4747 23.7931V15.6248C78.4747 14.88 78.284 14.3338 77.9026 13.9862C77.5379 13.6221 77.0156 13.44 76.3358 13.44C75.7389 13.44 75.1918 13.5807 74.6944 13.8621C74.1969 14.1434 73.799 14.5407 73.5006 15.0538C73.2187 15.5669 73.0778 16.1628 73.0778 16.8414L72.7545 13.9366C73.1855 13.0097 73.8073 12.2731 74.6197 11.7269C75.4322 11.1641 76.3773 10.8828 77.455 10.8828C78.7482 10.8828 79.7679 11.2552 80.514 12C81.2602 12.7283 81.6332 13.6717 81.6332 14.8303V23.7931H78.4747ZM87.0052 23.7931V15.6248C87.0052 14.88 86.8229 14.3338 86.4581 13.9862C86.0933 13.6221 85.571 13.44 84.8912 13.44C84.2778 13.44 83.7223 13.5807 83.2249 13.8621C82.7275 14.1434 82.3379 14.5407 82.056 15.0538C81.7741 15.5669 81.6332 16.1628 81.6332 16.8414L81.0861 13.9366C81.5006 13.0097 82.1306 12.2731 82.9762 11.7269C83.8218 11.1641 84.8001 10.8828 85.9109 10.8828C87.2374 10.8828 88.2736 11.2634 89.0197 12.0248C89.7824 12.7697 90.1638 13.7628 90.1638 15.0041V23.7931H87.0052ZM97.6611 24.0414C95.9036 24.0414 94.5025 23.6772 93.458 22.949C92.4134 22.2041 91.8414 21.1779 91.7419 19.8703H94.602C94.6849 20.5159 94.9917 21.0041 95.5222 21.3352C96.0528 21.6662 96.7658 21.8317 97.6611 21.8317C98.4735 21.8317 99.0787 21.7076 99.4766 21.4593C99.8911 21.1945 100.098 20.8221 100.098 20.3421C100.098 19.9945 99.9823 19.7131 99.7502 19.4979C99.5181 19.2662 99.0787 19.0759 98.4321 18.9269L96.3927 18.4552C95 18.1572 93.9637 17.6938 93.2839 17.0648C92.6207 16.4193 92.2891 15.6166 92.2891 14.6566C92.2891 13.4814 92.7367 12.5628 93.6321 11.9007C94.544 11.2221 95.7958 10.8828 97.3875 10.8828C98.9626 10.8828 100.223 11.2221 101.168 11.9007C102.129 12.5628 102.66 13.4814 102.76 14.6566H99.8994C99.8165 14.1434 99.5513 13.7545 99.1036 13.4897C98.6725 13.2248 98.0756 13.0924 97.3129 13.0924C96.5999 13.0924 96.0611 13.2083 95.6963 13.44C95.3316 13.6552 95.1492 13.9779 95.1492 14.4083C95.1492 14.7393 95.2901 15.0207 95.572 15.2524C95.8538 15.4676 96.3264 15.6579 96.9896 15.8234L99.1782 16.32C100.422 16.6014 101.358 17.0897 101.989 17.7848C102.635 18.48 102.959 19.2993 102.959 20.2428C102.959 21.451 102.494 22.3862 101.566 23.0483C100.637 23.7103 99.3357 24.0414 97.6611 24.0414ZM110.786 24.0414C109.443 24.0414 108.258 23.76 107.23 23.1972C106.219 22.6345 105.431 21.8566 104.867 20.8634C104.304 19.8538 104.022 18.7034 104.022 17.4124C104.022 16.1214 104.304 14.9876 104.867 14.011C105.431 13.0345 106.219 12.2731 107.23 11.7269C108.258 11.1641 109.443 10.8828 110.786 10.8828C112.146 10.8828 113.332 11.1641 114.343 11.7269C115.354 12.2731 116.142 13.0345 116.706 14.011C117.269 14.9876 117.551 16.1214 117.551 17.4124C117.551 18.7034 117.261 19.8538 116.681 20.8634C116.117 21.8566 115.329 22.6345 114.318 23.1972C113.307 23.76 112.129 24.0414 110.786 24.0414ZM110.786 21.5338C111.45 21.5338 112.047 21.3683 112.577 21.0372C113.108 20.6897 113.522 20.2097 113.821 19.5972C114.119 18.9683 114.268 18.2317 114.268 17.3876C114.268 16.1462 113.937 15.1697 113.274 14.4579C112.627 13.7462 111.798 13.3903 110.786 13.3903C109.775 13.3903 108.938 13.7462 108.275 14.4579C107.611 15.1697 107.28 16.1462 107.28 17.3876C107.28 18.2317 107.429 18.9683 107.727 19.5972C108.042 20.2097 108.457 20.6897 108.971 21.0372C109.502 21.3683 110.107 21.5338 110.786 21.5338ZM119.358 23.7931V11.131H122.418V14.1103H122.492V23.7931H119.358ZM128.262 23.7931V15.7986C128.262 15.0207 128.063 14.4331 127.665 14.0359C127.267 13.6386 126.687 13.44 125.924 13.44C125.261 13.44 124.664 13.589 124.134 13.8869C123.62 14.1848 123.213 14.5986 122.915 15.1283C122.633 15.6579 122.492 16.2703 122.492 16.9655L122.169 13.9366C122.6 13.0097 123.23 12.2731 124.059 11.7269C124.888 11.1641 125.883 10.8828 127.043 10.8828C128.42 10.8828 129.489 11.2717 130.252 12.0497C131.031 12.8276 131.421 13.8621 131.421 15.1531V23.7931H128.262ZM140.813 23.7931V21.4097H145.812C146.724 21.4097 147.429 21.1614 147.926 20.6648C148.424 20.1517 148.672 19.4565 148.672 18.5793C148.672 17.669 148.407 16.949 147.877 16.4193C147.346 15.8897 146.608 15.6248 145.663 15.6248H140.813V13.2414H145.439C146.335 13.2414 147.023 13.0262 147.504 12.5959C147.984 12.1655 148.225 11.5448 148.225 10.7338C148.225 9.93931 147.993 9.33517 147.528 8.92138C147.081 8.50759 146.418 8.30069 145.539 8.30069H140.813V5.91724H146.136C147.744 5.91724 149.029 6.32276 149.991 7.13379C150.969 7.92828 151.458 9.01241 151.458 10.3862C151.458 11.2469 151.251 12 150.836 12.6455C150.438 13.2745 149.899 13.7628 149.22 14.1103C148.54 14.4579 147.769 14.6317 146.907 14.6317L147.031 14.1103C147.943 14.1103 148.772 14.3172 149.518 14.731C150.264 15.1283 150.853 15.691 151.284 16.4193C151.732 17.1476 151.955 17.9917 151.955 18.9517C151.955 19.9283 151.723 20.7807 151.259 21.509C150.811 22.2372 150.173 22.8 149.344 23.1972C148.532 23.5945 147.57 23.7931 146.459 23.7931H140.813ZM138.277 23.7931V5.91724H141.51V23.7931H138.277ZM161.648 23.7931C161.565 23.4621 161.498 23.0979 161.449 22.7007C161.415 22.3034 161.399 21.8234 161.399 21.2607H161.299V15.2524C161.299 14.5903 161.109 14.0938 160.727 13.7628C160.363 13.4152 159.799 13.2414 159.036 13.2414C158.29 13.2414 157.693 13.3821 157.246 13.6634C156.814 13.9283 156.549 14.3172 156.45 14.8303H153.44C153.573 13.6552 154.137 12.7034 155.132 11.9752C156.126 11.2469 157.461 10.8828 159.136 10.8828C160.877 10.8828 162.195 11.28 163.09 12.0745C163.985 12.8524 164.433 14.0028 164.433 15.5255V21.2607C164.433 21.6579 164.458 22.0634 164.508 22.4772C164.574 22.891 164.665 23.3297 164.781 23.7931H161.648ZM157.246 24.0414C155.969 24.0414 154.949 23.7269 154.186 23.0979C153.44 22.4524 153.067 21.5917 153.067 20.5159C153.067 19.3572 153.49 18.4386 154.336 17.76C155.181 17.0814 156.375 16.6262 157.917 16.3945L161.871 15.7986V17.7848L158.439 18.3062C157.693 18.4221 157.129 18.629 156.748 18.9269C156.383 19.2248 156.201 19.6386 156.201 20.1683C156.201 20.6483 156.375 21.0207 156.723 21.2855C157.071 21.5338 157.552 21.6579 158.166 21.6579C159.061 21.6579 159.807 21.4345 160.404 20.9876C161.001 20.5407 161.299 19.9945 161.299 19.349L161.648 21.2607C161.316 22.171 160.769 22.8662 160.006 23.3462C159.26 23.8097 158.34 24.0414 157.246 24.0414ZM167.153 28.8828L170.436 21.5338L171.008 20.5903L174.59 11.131H177.922L170.337 28.8828H167.153ZM169.964 23.669L164.815 11.131H168.223L172.525 22.5021L169.964 23.669Z" fill="#3D3A80"/>
<path d="M183.532 15.5173V8.04417H180.609V6.57935H188.369V8.04417H185.447V15.5173H183.532ZM189.039 15.5173V6.57935H192.024L194.511 15.1945H193.429L195.916 6.57935H198.913V15.5173H197.023V7.11314H197.346L194.921 15.5173H192.944L190.544 7.18762H190.855V15.5173H189.039Z" fill="#3D3A80"/>
</svg>
