<svg width="24" height="24" viewBox="0 0 24 24" fill="none" xmlns="http://www.w3.org/2000/svg">
<path d="M12.0005 0C7.20775 0 3.30859 3.89916 3.30859 8.69184C3.30859 14.6397 11.087 23.3715 11.4182 23.7404C11.7292 24.0868 12.2723 24.0862 12.5828 23.7404C12.914 23.3715 20.6924 14.6397 20.6924 8.69184C20.6923 3.89916 16.7932 0 12.0005 0ZM12.0005 13.065C9.58914 13.065 7.62742 11.1032 7.62742 8.69184C7.62742 6.2805 9.58919 4.31878 12.0005 4.31878C14.4118 4.31878 16.3735 6.28055 16.3735 8.69189C16.3735 11.1032 14.4118 13.065 12.0005 13.065Z" fill="#3D3A80"/>
</svg>
