<svg width="24" height="24" viewBox="0 0 24 24" fill="none" xmlns="http://www.w3.org/2000/svg">
<path d="M11.5282 15.0277L10.5333 15.3933L11.2274 16.554L11.9339 16.2945C11.9495 16.2886 11.9622 16.2768 11.9691 16.2616C11.9761 16.2464 11.9768 16.2291 11.9711 16.2135L11.5364 15.0303L11.5282 15.0277ZM7.45643 16.5243L10.5644 21.7188C10.6469 21.8587 10.7564 21.9808 10.8865 22.0779C11.0166 22.1751 11.1648 22.2454 11.3223 22.2847C11.4799 22.3249 11.6439 22.3333 11.8048 22.3095C11.9657 22.2857 12.1202 22.2301 12.2594 22.146C12.3989 22.0635 12.5205 21.9541 12.6173 21.8242C12.714 21.6943 12.784 21.5464 12.8231 21.3892C12.8631 21.2315 12.8714 21.0674 12.8475 20.9065C12.8237 20.7456 12.768 20.591 12.6839 20.4517L9.8163 15.657L7.45643 16.5243ZM17.7146 6.80771L19.1414 10.6897C19.5122 10.4748 19.8077 10.1507 19.9874 9.76159C20.1039 9.51093 20.1696 9.23967 20.1807 8.96348C20.1918 8.68729 20.148 8.41164 20.0519 8.15246C19.8811 7.69032 19.5537 7.30266 19.1267 7.05691C18.6996 6.81115 18.2 6.72322 17.7146 6.80771Z" fill="#3D3A80"/>
<path d="M15.2459 2.26539C15.1304 1.95114 14.8646 1.74527 14.5349 1.71527C14.2027 1.68377 13.9094 1.83864 13.7399 2.12552L9.76007 8.78327L11.2061 12.717C11.2404 12.8104 11.2363 12.9135 11.1946 13.0038C11.1529 13.0941 11.077 13.1642 10.9837 13.1985C10.8904 13.2329 10.7872 13.2288 10.6969 13.1871C10.6066 13.1453 10.5366 13.0695 10.5022 12.9761L9.1237 9.22614L4.66082 10.8664C4.51928 10.918 4.38939 10.9972 4.27867 11.0993C4.16796 11.2015 4.07861 11.3246 4.01582 11.4615C3.95216 11.598 3.91623 11.7458 3.91012 11.8963C3.904 12.0468 3.92782 12.197 3.9802 12.3383L5.09545 15.3716C5.14696 15.5132 5.22605 15.6431 5.32815 15.7538C5.43024 15.8645 5.55331 15.9538 5.6902 16.0166C5.8268 16.0802 5.97465 16.1161 6.1252 16.1222C6.27574 16.1283 6.42601 16.1046 6.56732 16.0523L11.3939 14.2781C11.4746 14.2484 11.5631 14.2473 11.6444 14.2751L19.1456 16.8349C19.2954 16.8869 19.4571 16.8944 19.6112 16.8567C19.7653 16.819 19.9052 16.7376 20.0141 16.6223C20.1266 16.5089 20.2039 16.3654 20.2367 16.2091C20.2695 16.0529 20.2564 15.8904 20.1989 15.7414L15.2459 2.26539Z" fill="#3D3A80"/>
</svg>
