<svg width="24" height="24" viewBox="0 0 24 24" fill="none" xmlns="http://www.w3.org/2000/svg">
<g clip-path="url(#clip0_19_206)">
<path d="M23.9917 4.60353C23.9917 8.24977 22.4021 10.8988 22.3352 11.0093C22.2868 11.0891 22.223 11.1585 22.1477 11.2137C22.0723 11.2688 21.9869 11.3086 21.8961 11.3307C21.8054 11.3527 21.7112 11.3567 21.619 11.3423C21.5267 11.328 21.4382 11.2956 21.3585 11.247C21.197 11.1492 21.0809 10.9913 21.0358 10.8079C20.9907 10.6246 21.0203 10.4308 21.118 10.2693C21.1328 10.2451 22.5674 7.8338 22.5674 4.60353C22.5674 2.76137 21.3696 1.42433 19.7187 1.42433C18.9633 1.42506 18.239 1.72555 17.7049 2.25982C17.1708 2.79409 16.8706 3.51846 16.8701 4.27391C16.8701 4.94336 17.1941 6.64438 17.3185 7.24327C17.348 7.4245 17.3065 7.61013 17.2026 7.7615C17.0987 7.91288 16.9404 8.01833 16.7606 8.05591C16.5809 8.09348 16.3936 8.06028 16.2377 7.96321C16.0819 7.86614 15.9695 7.71269 15.9239 7.53482C15.8747 7.29991 15.4439 5.2117 15.4439 4.27391C15.4454 3.14069 15.8962 2.05432 16.6976 1.2531C17.499 0.451879 18.5855 0.0012284 19.7187 0C22.1542 0 23.9917 1.97864 23.9917 4.60353ZM19.8394 5.72423C20.1226 8.09099 20.533 12.7029 20.0613 13.1727L9.71221 23.5228C9.5608 23.6743 9.381 23.7945 9.18308 23.8765C8.98517 23.9585 8.77304 24.0006 8.55882 24.0005C8.3446 24.0004 8.1325 23.9581 7.93465 23.876C7.73681 23.7938 7.5571 23.6735 7.40581 23.5218L0.485659 16.6026C0.334168 16.4512 0.213995 16.2714 0.132004 16.0735C0.0500134 15.8757 0.0078125 15.6636 0.0078125 15.4494C0.0078125 15.2352 0.0500134 15.0231 0.132004 14.8253C0.213995 14.6274 0.334168 14.4476 0.485659 14.2962L10.8357 3.94708C11.0001 3.78273 12.7902 3.7753 14.8032 3.88022C14.7921 4.013 14.7633 4.13835 14.7633 4.27391C14.7633 4.79016 14.8775 5.59053 14.9973 6.29434C14.8263 6.54803 14.7171 6.83827 14.6786 7.14176C14.6401 7.44526 14.6732 7.75357 14.7754 8.04194C14.8775 8.33031 15.0459 8.59072 15.2669 8.80227C15.4879 9.01381 15.7554 9.1706 16.048 9.26005C16.3406 9.34951 16.65 9.36913 16.9515 9.31736C17.2531 9.26558 17.5382 9.14385 17.7842 8.96192C18.0302 8.77999 18.2301 8.54294 18.3679 8.26978C18.5056 7.99663 18.5775 7.69498 18.5776 7.38904C18.5776 6.72331 18.2442 6.13649 17.7364 5.78366C17.6324 5.16435 17.5488 4.56639 17.5488 4.27391C17.5488 4.21077 17.5618 4.15228 17.5674 4.09007C17.8153 4.11606 18.0595 4.14299 18.2907 4.17177C19.6584 4.33983 19.6723 4.33705 19.8394 5.72423ZM14.3232 13.4698C14.1625 13.0232 13.8951 12.4875 13.3148 11.8709L14.1003 11.0845L13.2257 10.2108L12.378 11.0594C11.2433 10.2823 10.0734 10.3454 9.27953 11.1393C8.41416 12.0046 8.61843 13.1031 9.25353 14.3798C9.68993 15.2637 9.76978 15.7725 9.43088 16.1114C9.08269 16.4596 8.52094 16.3083 8.01119 15.7994C7.43181 15.2201 7.09197 14.5042 6.92298 13.9239L5.61008 14.702C5.76235 15.2275 6.17275 15.9768 6.75214 16.5933L5.89606 17.4503L6.76978 18.325L7.68993 17.4058C8.90349 18.2618 10.1273 18.1467 10.9211 17.3528C11.7336 16.5385 11.8051 15.6286 11.1087 14.1829C10.6259 13.1467 10.5098 12.6379 10.7958 12.3528C11.0465 12.1021 11.4922 12.0306 12.0725 12.611C12.7159 13.2544 12.9295 13.8793 13.0455 14.2098L14.3232 13.4698Z" fill="#3D3A80"/>
</g>
<defs>
<clipPath id="clip0_19_206">
<rect width="24" height="24" fill="white"/>
</clipPath>
</defs>
</svg>
