<svg width="18" height="18" viewBox="0 0 18 18" fill="none" xmlns="http://www.w3.org/2000/svg">
<path d="M9 0C5.40545 0 2.48108 2.92437 2.48108 6.51888C2.48108 10.9798 8.31487 17.5287 8.56325 17.8053C8.79655 18.0651 9.20387 18.0647 9.43674 17.8053C9.68512 17.5287 15.5189 10.9798 15.5189 6.51888C15.5188 2.92437 12.5945 0 9 0ZM9 9.79871C7.19149 9.79871 5.7202 8.32739 5.7202 6.51888C5.7202 4.71037 7.19152 3.23909 9 3.23909C10.8085 3.23909 12.2798 4.71041 12.2798 6.51892C12.2798 8.32743 10.8085 9.79871 9 9.79871Z" fill="#FAFAFA"/>
</svg>
