<svg width="18" height="18" viewBox="0 0 18 18" fill="none" xmlns="http://www.w3.org/2000/svg">
<path d="M16.5336 13.14C16.0419 12.7277 13.1586 10.9018 12.6793 10.9856C12.4543 11.0256 12.2822 11.2174 11.8215 11.7669C11.6085 12.0374 11.3745 12.2908 11.1217 12.5246C10.6587 12.4128 10.2105 12.2466 9.78638 12.0296C8.12322 11.2199 6.77961 9.87589 5.97038 8.2125C5.75338 7.78841 5.58723 7.34018 5.47538 6.87712C5.70922 6.62439 5.96256 6.39042 6.23306 6.17738C6.78206 5.71669 6.97444 5.54569 7.01438 5.31956C7.09819 4.83919 5.27063 1.95694 4.86 1.46531C4.68788 1.26169 4.5315 1.125 4.33125 1.125C3.75075 1.125 1.125 4.37175 1.125 4.7925C1.125 4.82681 1.18125 8.20688 5.45006 12.5499C9.79313 16.8188 13.1732 16.875 13.2075 16.875C13.6283 16.875 16.875 14.2492 16.875 13.6687C16.875 13.4685 16.7383 13.3121 16.5336 13.14ZM12.9375 8.4375H14.0625C14.0612 7.24444 13.5866 6.10062 12.743 5.257C11.8994 4.41338 10.7556 3.93884 9.5625 3.9375V5.0625C10.4573 5.06339 11.3153 5.41926 11.948 6.052C12.5807 6.68474 12.9366 7.54267 12.9375 8.4375Z" fill="#FAFAFA"/>
<path d="M15.75 8.4375H16.875C16.8728 6.49879 16.1016 4.64012 14.7308 3.26925C13.3599 1.89837 11.5012 1.12723 9.5625 1.125V2.25C11.2029 2.25194 12.7756 2.90445 13.9356 4.06441C15.0955 5.22438 15.7481 6.79707 15.75 8.4375Z" fill="#FAFAFA"/>
</svg>
